<?xml version="1.0" encoding="UTF-8" standalone="no"?>
<!DOCTYPE svg PUBLIC "-//W3C//DTD SVG 1.1//EN"
 "http://www.w3.org/Graphics/SVG/1.1/DTD/svg11.dtd">
<!-- Generated by graphviz version 2.43.0 (0)
 -->
<!-- Title: AFL_Fantasy_ERD Pages: 1 -->
<svg width="470pt" height="835pt"
 viewBox="0.00 0.00 470.00 834.50" xmlns="http://www.w3.org/2000/svg" xmlns:xlink="http://www.w3.org/1999/xlink">
<g id="graph0" class="graph" transform="scale(1 1) rotate(0) translate(4 830.5)">
<title>AFL_Fantasy_ERD</title>
<polygon fill="white" stroke="transparent" points="-4,4 -4,-830.5 466,-830.5 466,4 -4,4"/>
<!-- players -->
<g id="node1" class="node">
<title>players</title>
<text text-anchor="start" x="239" y="-581.8" font-family="Times,serif" font-weight="bold" font-size="14.00">players</text>
<text text-anchor="start" x="217.5" y="-561.8" font-family="Times,serif" font-size="14.00">player_id (PK)</text>
<text text-anchor="start" x="217.5" y="-542.8" font-family="Times,serif" font-size="14.00">squad_id (FK)</text>
<text text-anchor="start" x="217.5" y="-523.8" font-family="Times,serif" font-size="14.00">first_name</text>
<text text-anchor="start" x="217.5" y="-504.8" font-family="Times,serif" font-size="14.00">last_name</text>
<text text-anchor="start" x="217.5" y="-485.8" font-family="Times,serif" font-size="14.00">positions</text>
<text text-anchor="start" x="217.5" y="-466.8" font-family="Times,serif" font-size="14.00">proj_avg</text>
<polygon fill="none" stroke="black" points="214,-460.5 214,-595.5 321,-595.5 321,-460.5 214,-460.5"/>
</g>
<!-- squads -->
<g id="node8" class="node">
<title>squads</title>
<text text-anchor="start" x="382" y="-543.8" font-family="Times,serif" font-weight="bold" font-size="14.00">squads</text>
<text text-anchor="start" x="360.5" y="-523.8" font-family="Times,serif" font-size="14.00">squad_id (PK)</text>
<text text-anchor="start" x="360.5" y="-504.8" font-family="Times,serif" font-size="14.00">name</text>
<polygon fill="none" stroke="black" points="357,-498.5 357,-557.5 462,-557.5 462,-498.5 357,-498.5"/>
</g>
<!-- players&#45;&gt;squads -->
<g id="edge10" class="edge">
<title>players&#45;&gt;squads</title>
<path fill="none" stroke="black" d="M321.03,-528C329.3,-528 337.93,-528 346.39,-528"/>
<polygon fill="black" stroke="black" points="346.61,-531.5 356.61,-528 346.61,-524.5 346.61,-531.5"/>
</g>
<!-- player_stats -->
<g id="node2" class="node">
<title>player_stats</title>
<text text-anchor="start" x="42" y="-697.8" font-family="Times,serif" font-weight="bold" font-size="14.00">player_stats</text>
<text text-anchor="start" x="39" y="-677.8" font-family="Times,serif" font-size="14.00">player_id (FK)</text>
<text text-anchor="start" x="39" y="-658.8" font-family="Times,serif" font-size="14.00">round (PK)</text>
<text text-anchor="start" x="39" y="-639.8" font-family="Times,serif" font-size="14.00">price</text>
<text text-anchor="start" x="39" y="-620.8" font-family="Times,serif" font-size="14.00">score</text>
<text text-anchor="start" x="39" y="-601.8" font-family="Times,serif" font-size="14.00">avg_points</text>
<polygon fill="none" stroke="black" points="35.5,-595 35.5,-711 142.5,-711 142.5,-595 35.5,-595"/>
</g>
<!-- player_stats&#45;&gt;players -->
<g id="edge1" class="edge">
<title>player_stats&#45;&gt;players</title>
<path fill="none" stroke="black" d="M142.96,-615.5C162.68,-601.53 185.22,-585.56 205.6,-571.13"/>
<polygon fill="black" stroke="black" points="207.75,-573.9 213.89,-565.26 203.7,-568.19 207.75,-573.9"/>
</g>
<!-- coach_projections -->
<g id="node3" class="node">
<title>coach_projections</title>
<text text-anchor="start" x="19" y="-562.8" font-family="Times,serif" font-weight="bold" font-size="14.00">coach_projections</text>
<text text-anchor="start" x="19" y="-542.8" font-family="Times,serif" font-size="14.00">player_id (FK)</text>
<text text-anchor="start" x="19" y="-523.8" font-family="Times,serif" font-size="14.00">round (PK)</text>
<text text-anchor="start" x="19" y="-504.8" font-family="Times,serif" font-size="14.00">proj_score</text>
<text text-anchor="start" x="19" y="-485.8" font-family="Times,serif" font-size="14.00">break_even</text>
<polygon fill="none" stroke="black" points="15.5,-479.5 15.5,-576.5 162.5,-576.5 162.5,-479.5 15.5,-479.5"/>
</g>
<!-- coach_projections&#45;&gt;players -->
<g id="edge2" class="edge">
<title>coach_projections&#45;&gt;players</title>
<path fill="none" stroke="black" d="M162.55,-528C176.27,-528 190.5,-528 203.88,-528"/>
<polygon fill="black" stroke="black" points="203.92,-531.5 213.92,-528 203.92,-524.5 203.92,-531.5"/>
</g>
<!-- player_venue_stats -->
<g id="node4" class="node">
<title>player_venue_stats</title>
<text text-anchor="start" x="15" y="-217.8" font-family="Times,serif" font-weight="bold" font-size="14.00">player_venue_stats</text>
<text text-anchor="start" x="15" y="-197.8" font-family="Times,serif" font-size="14.00">player_id (FK)</text>
<text text-anchor="start" x="15" y="-178.8" font-family="Times,serif" font-size="14.00">venue_id (FK)</text>
<text text-anchor="start" x="15" y="-159.8" font-family="Times,serif" font-size="14.00">score</text>
<text text-anchor="start" x="15" y="-140.8" font-family="Times,serif" font-size="14.00">TOG</text>
<polygon fill="none" stroke="black" points="11.5,-134.5 11.5,-231.5 166.5,-231.5 166.5,-134.5 11.5,-134.5"/>
</g>
<!-- player_venue_stats&#45;&gt;players -->
<g id="edge3" class="edge">
<title>player_venue_stats&#45;&gt;players</title>
<path fill="none" stroke="black" d="M166.62,-227.41C170.84,-231.64 174.69,-236.17 178,-241 220.88,-303.66 190.67,-335.75 214,-408 218.59,-422.2 224.27,-437.01 230.19,-451.17"/>
<polygon fill="black" stroke="black" points="226.97,-452.55 234.1,-460.38 233.41,-449.81 226.97,-452.55"/>
</g>
<!-- venues -->
<g id="node9" class="node">
<title>venues</title>
<text text-anchor="start" x="240" y="-198.8" font-family="Times,serif" font-weight="bold" font-size="14.00">venues</text>
<text text-anchor="start" x="218.5" y="-178.8" font-family="Times,serif" font-size="14.00">venue_id (PK)</text>
<text text-anchor="start" x="218.5" y="-159.8" font-family="Times,serif" font-size="14.00">name</text>
<polygon fill="none" stroke="black" points="215,-153.5 215,-212.5 320,-212.5 320,-153.5 215,-153.5"/>
</g>
<!-- player_venue_stats&#45;&gt;venues -->
<g id="edge4" class="edge">
<title>player_venue_stats&#45;&gt;venues</title>
<path fill="none" stroke="black" d="M166.65,-183C179.36,-183 192.41,-183 204.7,-183"/>
<polygon fill="black" stroke="black" points="204.83,-186.5 214.83,-183 204.83,-179.5 204.83,-186.5"/>
</g>
<!-- player_opp_stats -->
<g id="node5" class="node">
<title>player_opp_stats</title>
<text text-anchor="start" x="24" y="-812.8" font-family="Times,serif" font-weight="bold" font-size="14.00">player_opp_stats</text>
<text text-anchor="start" x="3" y="-792.8" font-family="Times,serif" font-size="14.00">player_id (FK)</text>
<text text-anchor="start" x="3" y="-773.8" font-family="Times,serif" font-size="14.00">opponent_squad_id (FK)</text>
<text text-anchor="start" x="3" y="-754.8" font-family="Times,serif" font-size="14.00">score</text>
<text text-anchor="start" x="3" y="-735.8" font-family="Times,serif" font-size="14.00">TOG</text>
<polygon fill="none" stroke="black" points="0,-729.5 0,-826.5 178,-826.5 178,-729.5 0,-729.5"/>
</g>
<!-- player_opp_stats&#45;&gt;players -->
<g id="edge5" class="edge">
<title>player_opp_stats&#45;&gt;players</title>
<path fill="none" stroke="black" d="M169.18,-729.25C172.3,-726.28 175.26,-723.19 178,-720 206.56,-686.77 227.73,-642.78 242.19,-605.29"/>
<polygon fill="black" stroke="black" points="245.47,-606.5 245.72,-595.91 238.92,-604.03 245.47,-606.5"/>
</g>
<!-- player_opp_stats&#45;&gt;squads -->
<g id="edge6" class="edge">
<title>player_opp_stats&#45;&gt;squads</title>
<path fill="none" stroke="black" d="M164.75,-729.44C169.27,-726.29 173.71,-723.13 178,-720 247.42,-669.38 323.08,-604.28 368.12,-564.37"/>
<polygon fill="black" stroke="black" points="370.47,-566.97 375.62,-557.71 365.82,-561.73 370.47,-566.97"/>
</g>
<!-- rounds -->
<g id="node6" class="node">
<title>rounds</title>
<text text-anchor="start" x="239.5" y="-83.8" font-family="Times,serif" font-weight="bold" font-size="14.00">rounds</text>
<text text-anchor="start" x="218.5" y="-63.8" font-family="Times,serif" font-size="14.00">round_id (PK)</text>
<text text-anchor="start" x="218.5" y="-44.8" font-family="Times,serif" font-size="14.00">start</text>
<text text-anchor="start" x="218.5" y="-25.8" font-family="Times,serif" font-size="14.00">status</text>
<polygon fill="none" stroke="black" points="215.5,-19 215.5,-97 319.5,-97 319.5,-19 215.5,-19"/>
</g>
<!-- matches -->
<g id="node7" class="node">
<title>matches</title>
<text text-anchor="start" x="56" y="-102.8" font-family="Times,serif" font-weight="bold" font-size="14.00">matches</text>
<text text-anchor="start" x="17" y="-82.8" font-family="Times,serif" font-size="14.00">match_id (PK)</text>
<text text-anchor="start" x="17" y="-63.8" font-family="Times,serif" font-size="14.00">round_id (FK)</text>
<text text-anchor="start" x="17" y="-44.8" font-family="Times,serif" font-size="14.00">home_squad_id (FK)</text>
<text text-anchor="start" x="17" y="-25.8" font-family="Times,serif" font-size="14.00">away_squad_id (FK)</text>
<text text-anchor="start" x="17" y="-6.8" font-family="Times,serif" font-size="14.00">venue_id (FK)</text>
<polygon fill="none" stroke="black" points="13.5,0 13.5,-116 164.5,-116 164.5,0 13.5,0"/>
</g>
<!-- matches&#45;&gt;rounds -->
<g id="edge7" class="edge">
<title>matches&#45;&gt;rounds</title>
<path fill="none" stroke="black" d="M164.6,-58C178.11,-58 192.06,-58 205.13,-58"/>
<polygon fill="black" stroke="black" points="205.41,-61.5 215.41,-58 205.41,-54.5 205.41,-61.5"/>
</g>
<!-- matches&#45;&gt;squads -->
<g id="edge8" class="edge">
<title>matches&#45;&gt;squads</title>
<path fill="none" stroke="black" d="M164.62,-87.28C180.87,-93.54 197.98,-100.06 214,-106 261.31,-123.56 287.47,-106.29 321,-144 366.46,-195.13 394.32,-400.97 404.31,-488.4"/>
<polygon fill="black" stroke="black" points="400.85,-488.91 405.44,-498.46 407.8,-488.13 400.85,-488.91"/>
</g>
<!-- matches&#45;&gt;venues -->
<g id="edge9" class="edge">
<title>matches&#45;&gt;venues</title>
<path fill="none" stroke="black" d="M164.6,-110.83C182.06,-123.2 200.26,-136.09 216.36,-147.49"/>
<polygon fill="black" stroke="black" points="214.39,-150.38 224.57,-153.31 218.44,-144.67 214.39,-150.38"/>
</g>
<!-- user_team -->
<g id="node10" class="node">
<title>user_team</title>
<text text-anchor="start" x="226.5" y="-385.8" font-family="Times,serif" font-weight="bold" font-size="14.00">user_team</text>
<text text-anchor="start" x="223.5" y="-365.8" font-family="Times,serif" font-size="14.00">user_id (PK)</text>
<text text-anchor="start" x="223.5" y="-346.8" font-family="Times,serif" font-size="14.00">team_id</text>
<text text-anchor="start" x="223.5" y="-327.8" font-family="Times,serif" font-size="14.00">salary_cap</text>
<text text-anchor="start" x="223.5" y="-308.8" font-family="Times,serif" font-size="14.00">value</text>
<text text-anchor="start" x="223.5" y="-289.8" font-family="Times,serif" font-size="14.00">formation</text>
<polygon fill="none" stroke="black" points="220.5,-283 220.5,-399 314.5,-399 314.5,-283 220.5,-283"/>
</g>
<!-- user_team_lineup -->
<g id="node11" class="node">
<title>user_team_lineup</title>
<text text-anchor="start" x="20" y="-447.8" font-family="Times,serif" font-weight="bold" font-size="14.00">user_team_lineup</text>
<text text-anchor="start" x="20" y="-427.8" font-family="Times,serif" font-size="14.00">user_id (FK)</text>
<text text-anchor="start" x="20" y="-408.8" font-family="Times,serif" font-size="14.00">round (PK)</text>
<text text-anchor="start" x="20" y="-389.8" font-family="Times,serif" font-size="14.00">player_id (FK)</text>
<text text-anchor="start" x="20" y="-370.8" font-family="Times,serif" font-size="14.00">role</text>
<polygon fill="none" stroke="black" points="16.5,-364.5 16.5,-461.5 161.5,-461.5 161.5,-364.5 16.5,-364.5"/>
</g>
<!-- user_team_lineup&#45;&gt;players -->
<g id="edge11" class="edge">
<title>user_team_lineup&#45;&gt;players</title>
<path fill="none" stroke="black" d="M161.53,-459.61C176.02,-469.04 191.12,-478.89 205.21,-488.07"/>
<polygon fill="black" stroke="black" points="203.55,-491.16 213.84,-493.69 207.37,-485.3 203.55,-491.16"/>
</g>
<!-- user_team_lineup&#45;&gt;user_team -->
<g id="edge12" class="edge">
<title>user_team_lineup&#45;&gt;user_team</title>
<path fill="none" stroke="black" d="M161.53,-383.82C177.99,-377.1 195.26,-370.06 210.93,-363.67"/>
<polygon fill="black" stroke="black" points="212.51,-366.8 220.45,-359.78 209.87,-360.32 212.51,-366.8"/>
</g>
<!-- user_snapshot -->
<g id="node12" class="node">
<title>user_snapshot</title>
<text text-anchor="start" x="32" y="-332.8" font-family="Times,serif" font-weight="bold" font-size="14.00">user_snapshot</text>
<text text-anchor="start" x="32" y="-312.8" font-family="Times,serif" font-size="14.00">user_id (FK)</text>
<text text-anchor="start" x="32" y="-293.8" font-family="Times,serif" font-size="14.00">round (PK)</text>
<text text-anchor="start" x="32" y="-274.8" font-family="Times,serif" font-size="14.00">points</text>
<text text-anchor="start" x="32" y="-255.8" font-family="Times,serif" font-size="14.00">rank</text>
<polygon fill="none" stroke="black" points="28.5,-249.5 28.5,-346.5 149.5,-346.5 149.5,-249.5 28.5,-249.5"/>
</g>
<!-- user_snapshot&#45;&gt;user_team -->
<g id="edge13" class="edge">
<title>user_snapshot&#45;&gt;user_team</title>
<path fill="none" stroke="black" d="M149.75,-312.56C169.43,-317.35 191.22,-322.66 210.59,-327.38"/>
<polygon fill="black" stroke="black" points="209.94,-330.82 220.48,-329.79 211.59,-324.02 209.94,-330.82"/>
</g>
</g>
</svg>
